<svg id="flat" height="512" viewBox="0 0 512 512" width="512" xmlns="http://www.w3.org/2000/svg"><path d="m280 288h208v32h-208z" fill="#f58c3b"/><path d="m96 208h320v32h-320z" fill="#e06d1b"/><path d="m96 48h320v160h-320z" fill="#1783cf"/><path d="m344 272h80v48h-80z" fill="#c24d0e"/><path d="m352 320h16v40h-16z" fill="#fa9d55"/><path d="m400 320h16v40h-16z" fill="#fa9d55"/><path d="m336 360h96v32h-96z" fill="#c24d0e"/><path d="m288 320h16v152h-16z" fill="#fa9d55"/><path d="m464 320h16v152h-16z" fill="#fa9d55"/><path d="m344 392h16v80h-16z" fill="#fa9d55"/><path d="m408 392h16v80h-16z" fill="#fa9d55"/><path d="m152 176h56v32h-56z" fill="#f58c3b"/><path d="m24 288h208v32h-208z" fill="#f58c3b"/><path d="m88 272h80v48h-80z" fill="#c24d0e"/><path d="m96 320h16v40h-16z" fill="#fa9d55"/><path d="m144 320h16v40h-16z" fill="#fa9d55"/><path d="m80 360h96v32h-96z" fill="#c24d0e"/><path d="m32 320h16v152h-16z" fill="#fa9d55"/><path d="m208 320h16v152h-16z" fill="#fa9d55"/><path d="m88 392h16v80h-16z" fill="#fa9d55"/><path d="m152 392h16v80h-16z" fill="#fa9d55"/><g fill="#e06d1b"><path d="m32 320h16v16h-16z"/><path d="m208 320h16v16h-16z"/><path d="m288 320h16v16h-16z"/><path d="m464 320h16v16h-16z"/></g></svg>